<?xml version="1.0" encoding="UTF-8" standalone="no"?>
<!--?xml version="1.0" encoding="utf-8"?-->

<!-- Generator: Adobe Illustrator 18.1.1, SVG Export Plug-In . SVG Version: 6.00 Build 0)  -->

<svg
   version="1.1"
   id="_x32_"
   x="0px"
   y="0px"
   viewBox="0 0 64 64"
   style="opacity:1"
   xml:space="preserve"
   sodipodi:docname="close_bomb.svg"
   inkscape:version="1.2.1 (9c6d41e410, 2022-07-14)"
   width="64"
   height="64"
   xmlns:inkscape="http://www.inkscape.org/namespaces/inkscape"
   xmlns:sodipodi="http://sodipodi.sourceforge.net/DTD/sodipodi-0.dtd"
   xmlns:xlink="http://www.w3.org/1999/xlink"
   xmlns="http://www.w3.org/2000/svg"
   xmlns:svg="http://www.w3.org/2000/svg"><defs
   id="defs11"><linearGradient
     id="linearGradient3653"><stop
       style="stop-color:#808080;stop-opacity:0.9987309;"
       offset="0"
       id="stop3649" /><stop
       style="stop-color:#cccccc;stop-opacity:1;"
       offset="1"
       id="stop3651" /></linearGradient><linearGradient
     id="linearGradient881"
     inkscape:swatch="solid"><stop
       style="stop-color:#e51a1a;stop-opacity:1;"
       offset="0"
       id="stop879" /></linearGradient><linearGradient
     inkscape:collect="always"
     id="linearGradient986"><stop
       style="stop-color:#000000;stop-opacity:1;"
       offset="0"
       id="stop982" /><stop
       style="stop-color:#000000;stop-opacity:0;"
       offset="1"
       id="stop984" /></linearGradient><linearGradient
     id="linearGradient973"><stop
       style="stop-color:#cccccc;stop-opacity:1;"
       offset="0"
       id="stop977" /><stop
       style="stop-color:#808080;stop-opacity:0.9987309;"
       offset="1"
       id="stop979" /></linearGradient><linearGradient
     id="linearGradient957"
     inkscape:swatch="solid"><stop
       style="stop-color:#e38585;stop-opacity:1;"
       offset="0"
       id="stop955" /></linearGradient><linearGradient
     inkscape:collect="always"
     xlink:href="#linearGradient986"
     id="linearGradient988"
     x1="0"
     y1="256"
     x2="512"
     y2="256"
     gradientUnits="userSpaceOnUse" /><linearGradient
     inkscape:collect="always"
     xlink:href="#linearGradient973"
     id="linearGradient3657"
     x1="512.34711"
     y1="512"
     x2="-0.34711865"
     y2="0.69423729"
     gradientUnits="userSpaceOnUse"
     gradientTransform="scale(0.125)" /></defs><sodipodi:namedview
   id="namedview9"
   pagecolor="#ffffff"
   bordercolor="#000000"
   borderopacity="0.25"
   inkscape:showpageshadow="2"
   inkscape:pageopacity="0.0"
   inkscape:pagecheckerboard="0"
   inkscape:deskcolor="#d1d1d1"
   showgrid="false"
   inkscape:zoom="1"
   inkscape:cx="128"
   inkscape:cy="257.5"
   inkscape:window-width="3840"
   inkscape:window-height="2036"
   inkscape:window-x="3828"
   inkscape:window-y="-12"
   inkscape:window-maximized="1"
   inkscape:current-layer="_x32_" />
<style
   type="text/css"
   id="style2">
	.st0{fill:#4B4B4B;}
</style>

<rect
   style="fill:url(#linearGradient3657);fill-opacity:1;stroke:none;stroke-width:0.258616"
   id="rect3645"
   width="64"
   height="64"
   x="0"
   y="0" /><g
   id="g5654"
   transform="matrix(0.1125,0,0,0.1125,3.1999302,3.2000499)"
   style="fill:#ffffff;fill-opacity:1;stroke:none">
	<path
   class="st0"
   d="m 289.796,214.751 v -44.219 h -38.813 c 0.75,-5.047 2.078,-10.172 4.5,-15.125 2.547,-5.172 6.219,-10.219 11.953,-15.094 5.75,-4.844 13.625,-9.484 24.641,-13.359 26.625,-9.422 41.672,-17.938 50.938,-26.719 4.594,-4.375 7.688,-9 9.453,-13.516 1.765,-4.516 2.109,-8.75 2.094,-11.75 0,-5.813 -4.703,-10.516 -10.516,-10.516 -5.797,0 -10.5,4.703 -10.5,10.516 -0.016,1.625 -0.141,2.688 -0.672,4.094 -0.797,2.016 -2.859,5.484 -9.984,10.453 -7.063,4.938 -18.938,10.984 -37.797,17.594 -13,4.578 -23.266,10.422 -31.219,17.141 -11.969,10.063 -18.469,22.125 -21.594,33.234 -1.297,4.578 -2,8.906 -2.469,13.047 H 185.78 v 46.703 c -56.875,22.188 -97.25,77.391 -97.25,142.125 0,84.297 68.344,152.641 152.641,152.641 84.313,0 152.656,-68.344 152.656,-152.641 0,-67.297 -43.594,-124.281 -104.031,-144.609 z m -98.969,65.828 c -25.859,14.313 -43.406,41.844 -43.391,73.391 0,6.969 -5.656,12.609 -12.625,12.609 -6.969,0 -12.609,-5.641 -12.609,-12.609 0,-41.078 22.828,-76.922 56.406,-95.469 6.109,-3.375 13.781,-1.172 17.141,4.938 3.375,6.093 1.172,13.765 -4.922,17.14 z"
   style="fill:#ffffff;fill-opacity:1;stroke:none"
   id="path5638" />
	<path
   class="st0"
   d="m 342.077,38.985 4.281,-0.344 c 0.391,-0.031 0.719,-0.359 0.703,-0.766 L 346.514,0.766 C 346.53,0.563 346.42,0.344 346.264,0.188 346.108,0.063 345.905,-0.015 345.701,0 l -9.016,0.719 c -0.203,0.016 -0.406,0.109 -0.531,0.266 -0.141,0.172 -0.188,0.406 -0.172,0.609 l 5.281,36.719 c 0.064,0.422 0.424,0.704 0.814,0.672 z"
   style="fill:#ffffff;fill-opacity:1;stroke:none"
   id="path5640" />
	<path
   class="st0"
   d="m 352.249,113.61 -4.266,0.344 c -0.406,0.031 -0.703,0.375 -0.719,0.781 l 0.547,37.094 c 0.016,0.219 0.109,0.422 0.25,0.578 0.156,0.141 0.375,0.219 0.594,0.203 l 9,-0.719 c 0.219,-0.016 0.406,-0.125 0.531,-0.281 0.125,-0.172 0.203,-0.391 0.156,-0.609 l -5.266,-36.719 c -0.061,-0.406 -0.421,-0.703 -0.827,-0.672 z"
   style="fill:#ffffff;fill-opacity:1;stroke:none"
   id="path5642" />
	<path
   class="st0"
   d="m 316.14,53.626 c 0.328,0.25 0.781,0.203 1.063,-0.109 l 2.766,-3.25 c 0.266,-0.313 0.25,-0.781 -0.047,-1.063 L 293.296,23.36 c -0.141,-0.156 -0.359,-0.25 -0.563,-0.25 -0.203,0.031 -0.422,0.125 -0.578,0.297 l -5.844,6.844 c -0.125,0.172 -0.203,0.375 -0.172,0.594 0.016,0.203 0.141,0.406 0.297,0.531 z"
   style="fill:#ffffff;fill-opacity:1;stroke:none"
   id="path5644" />
	<path
   class="st0"
   d="m 378.187,98.985 c -0.313,-0.25 -0.781,-0.203 -1.047,0.109 l -2.766,3.25 c -0.266,0.328 -0.25,0.766 0.047,1.063 l 26.625,25.859 c 0.156,0.141 0.359,0.219 0.563,0.219 0.219,0 0.422,-0.109 0.563,-0.281 l 5.859,-6.844 c 0.141,-0.172 0.203,-0.375 0.172,-0.594 -0.016,-0.219 -0.141,-0.422 -0.297,-0.531 z"
   style="fill:#ffffff;fill-opacity:1;stroke:none"
   id="path5646" />
	<path
   class="st0"
   d="m 271.874,87.313 c 0.172,0.141 0.375,0.203 0.594,0.172 l 36.734,-5.281 c 0.391,-0.063 0.688,-0.422 0.672,-0.813 l -0.344,-4.266 c -0.031,-0.406 -0.391,-0.719 -0.781,-0.719 L 271.64,76.97 c -0.203,-0.016 -0.406,0.078 -0.563,0.234 -0.141,0.156 -0.234,0.359 -0.203,0.578 l 0.719,9 c 0.015,0.203 0.125,0.406 0.281,0.531 z"
   style="fill:#ffffff;fill-opacity:1;stroke:none"
   id="path5648" />
	<path
   class="st0"
   d="m 422.765,65.829 c -0.016,-0.219 -0.125,-0.406 -0.281,-0.531 -0.172,-0.141 -0.391,-0.219 -0.609,-0.172 l -36.719,5.281 c -0.422,0.047 -0.688,0.406 -0.656,0.828 l 0.328,4.25 c 0.031,0.406 0.359,0.719 0.781,0.719 l 37.094,-0.547 c 0.219,0 0.422,-0.094 0.578,-0.25 0.141,-0.156 0.203,-0.375 0.188,-0.578 z"
   style="fill:#ffffff;fill-opacity:1;stroke:none"
   id="path5650" />
	<path
   class="st0"
   d="m 373.233,49.11 c 0.297,0.266 0.766,0.234 1.031,-0.063 l 25.875,-26.609 c 0.141,-0.172 0.219,-0.375 0.219,-0.578 -0.016,-0.219 -0.109,-0.422 -0.281,-0.563 l -6.859,-5.844 c -0.172,-0.141 -0.359,-0.219 -0.578,-0.188 -0.219,0.031 -0.406,0.141 -0.547,0.313 l -22.25,29.703 c -0.234,0.328 -0.188,0.781 0.125,1.047 z"
   style="fill:#ffffff;fill-opacity:1;stroke:none"
   id="path5652" />
</g></svg>
